<svg data-no-optimize="1" xmlns="http://www.w3.org/2000/svg">
    <symbol id="arrow-right" viewBox="0 0 40 40">
        <g clip-path="url(#clip0_116_6487)">
        <path d="M9.2 20L29.9 20M29.9 20L21.8 28.1M29.9 20L21.8 11.9M20 38C10.0589 38 2 29.9411 2 20C2 10.0589 10.0589 2 20 2C29.9411 2 38 10.0589 38 20C38 29.9411 29.9411 38 20 38Z" stroke="white" stroke-width="3" stroke-linecap="round" stroke-linejoin="round"/>
        </g>
        <defs>
        <clipPath id="clip0_116_6487">
        <rect width="40" height="40" fill="white"/>
        </clipPath>
        </defs>
    </symbol>
    <symbol id="cam" viewBox="0 0 40 40">
        <path d="M36.6277 10.7143L28.5706 14.2857V9.99996C28.5706 9.24219 28.2696 8.51548 27.7338 7.97965C27.1979 7.44385 26.4712 7.14282 25.7134 7.14282H4.28488C3.52711 7.14282 2.80039 7.44385 2.26457 7.97965C1.72875 8.51548 1.42773 9.24219 1.42773 9.99996V30C1.42773 30.7577 1.72875 31.4845 2.26457 32.0202C2.80039 32.556 3.52711 32.8571 4.28488 32.8571H25.7134C26.4712 32.8571 27.1979 32.556 27.7338 32.0202C28.2696 31.4845 28.5706 30.7577 28.5706 30V25.7142L36.6277 29.2857C36.8449 29.3694 37.0794 29.3991 37.3106 29.3714C37.5417 29.344 37.7629 29.2605 37.9543 29.128C38.1457 28.9957 38.302 28.8185 38.4094 28.612C38.5169 28.4054 38.5723 28.1756 38.5706 27.9428V12.0571C38.5723 11.8243 38.5169 11.5946 38.4094 11.388C38.302 11.1814 38.1457 11.0042 37.9543 10.8719C37.7629 10.7395 37.5417 10.6559 37.3106 10.6284C37.0794 10.601 36.8449 10.6304 36.6277 10.7143Z" stroke="white" stroke-width="3" stroke-linecap="round" stroke-linejoin="round"/>
    </symbol>
    <symbol id="mail" viewBox="0 0 100 100">
        <rect x="1.5" y="1.5" width="97" height="97" rx="48.5" stroke="white" stroke-width="3"/>
        <rect x="15.5" y="26" width="69" height="48" rx="6.5" stroke="white" stroke-width="3"/>
        <path d="M20 31.5L44.6667 50M80 31.5L55.3333 50M79.5 68.5L55.3333 50M55.3333 50L51.2 53.1C50.4889 53.6333 49.5111 53.6333 48.8 53.1L44.6667 50M20 68.5L44.6667 50" stroke="white" stroke-width="3" stroke-linecap="round"/>
    </symbol>
    <symbol id="whatsapp" viewBox="0 0 100 100">
        <rect x="1.5" y="1.5" width="97" height="97" rx="48.5" stroke="white" stroke-width="3"/>
        <path d="M25.9325 75C25.7846 75.0004 25.6388 74.9655 25.5071 74.8984C25.3753 74.8312 25.2616 74.7337 25.1752 74.6138C25.0888 74.494 25.0323 74.3553 25.0103 74.2093C24.9884 74.0633 25.0016 73.9142 25.0489 73.7743L28.7228 62.9841C25.8324 58.1835 24.6289 52.5574 25.3027 46.9967C25.9766 41.4361 28.4894 36.2589 32.4432 32.2851C37.1373 27.6194 43.4914 25 50.1151 25C56.7389 25 63.0929 27.6194 67.787 32.2851C71.9249 36.4756 74.4507 41.9884 74.9203 47.8542C75.3899 53.72 73.7733 59.5633 70.3547 64.3569C66.9361 69.1504 61.9343 72.5874 56.2286 74.0635C50.523 75.5397 44.4788 74.9605 39.1585 72.4278L26.1185 75H25.9325ZM39.2795 70.4964C39.4251 70.4972 39.5684 70.5322 39.698 70.5985C44.6189 73.049 50.2517 73.6745 55.5916 72.3634C60.9315 71.0523 65.6312 67.8898 68.8523 63.4402C72.0735 58.9906 73.6065 53.5433 73.178 48.0699C72.7495 42.5965 70.3873 37.4531 66.5128 33.5572C64.3596 31.4071 61.8032 29.7014 58.9897 28.5378C56.1761 27.3741 53.1605 26.7751 50.1151 26.7751C47.0697 26.7751 44.0541 27.3741 41.2406 28.5378C38.427 29.7014 35.8707 31.4071 33.7174 33.5572C30.0129 37.2945 27.6841 42.1733 27.1099 47.3999C26.5357 52.6265 27.75 57.8933 30.5551 62.3434C30.6296 62.461 30.6766 62.5939 30.6927 62.7321C30.7088 62.8703 30.6935 63.0104 30.6481 63.142L27.337 72.8828L39.112 70.5428L39.2795 70.4964Z" fill="white" stroke="white"/>
        <path d="M56.7147 63.2694C56.4322 63.2852 56.1492 63.2852 55.8667 63.2694C50.972 62.7187 44.8052 57.7341 43.063 55.9776C41.3577 54.2212 36.5091 47.8314 35.9836 42.7899C35.5596 38.7642 38.1683 36.0298 39.3113 35.0329C39.8224 34.5807 40.4818 34.3464 41.1549 34.3778L43.6437 34.4632C43.8257 34.4702 44.0017 34.5325 44.1493 34.6423C44.297 34.7522 44.4097 34.9046 44.4733 35.0804C45.0264 36.59 46.8147 41.6126 46.8147 42.9133C46.8147 44.0526 45.8376 44.9356 44.9711 45.7142C44.7867 45.8756 44.5379 46.1034 44.3904 46.2648C45.322 48.0185 46.4379 49.6614 47.718 51.164C49.177 52.4823 50.772 53.6317 52.4745 54.5915C52.6312 54.43 52.8524 54.1737 53.0091 53.9933C53.765 53.1008 54.6223 52.0944 55.7745 52.0944C57.0374 52.0944 61.9136 53.9363 63.3793 54.506C63.5499 54.5715 63.6979 54.6877 63.8046 54.8397C63.9112 54.9918 63.9717 55.173 63.9784 55.3605L64.0614 57.924C64.0803 58.6155 63.8542 59.2905 63.4254 59.8229C62.6108 60.8579 61.5904 61.701 60.4328 62.2955C59.2752 62.89 58.0074 63.2221 56.7147 63.2694ZM44.3719 54.6104C45.8929 56.177 51.7463 60.8768 56.0695 61.361C59.1022 61.6933 61.2223 59.5381 61.9966 58.5981C62.1348 58.421 62.2068 58.1986 62.1994 57.9715L62.1349 56.0726C60.0628 55.2167 57.9303 54.5248 55.7561 54.0028C55.4611 54.0028 54.7329 54.8858 54.4195 55.2561C53.7926 55.9966 53.2949 56.5758 52.5759 56.5758C51.4052 56.5758 47.3217 53.4616 46.4091 52.5217C45.4965 51.5817 42.5007 47.3472 42.5007 46.1794C42.5007 45.4673 43.063 44.9546 43.782 44.2805C44.1323 43.9577 44.9711 43.2171 44.9988 42.9038C44.4918 40.6644 43.8201 38.468 42.9893 36.3336L41.1457 36.2672C40.9251 36.2596 40.7093 36.3337 40.5373 36.4761C39.6155 37.2736 37.523 39.4573 37.8549 42.5715C38.325 47.0529 42.8879 53.0154 44.4088 54.6199L44.3719 54.6104Z" fill="white" stroke="white"/>
    </symbol>
    <symbol id="telegram" viewBox="0 0 100 100">
        <rect x="1.5" y="1.5" width="97" height="97" rx="48.5" stroke="white" stroke-width="3"/>
        <path d="M38.6536 52.4883L63.8223 74.4421C64.1132 74.6974 64.466 74.8733 64.8462 74.9525C65.2264 75.0317 65.6208 75.0116 65.9907 74.894C66.3606 74.7764 66.6934 74.5655 66.9562 74.2819C67.219 73.9983 67.4029 73.6518 67.4898 73.2764L78.0165 27.7035C78.1048 27.3111 78.0839 26.9022 77.956 26.5206C77.8282 26.139 77.5982 25.7989 77.2906 25.5368C76.9831 25.2746 76.6095 25.1002 76.2097 25.0321C75.81 24.964 75.3991 25.0048 75.0209 25.1501L23.3395 45.2721C21.2678 46.077 21.5478 49.0745 23.7315 49.5186L38.6536 52.4883Z" stroke="white" stroke-width="3" stroke-linecap="round" stroke-linejoin="round"/>
        <path d="M38.5964 52.193L76.3157 25.6255" stroke="white" stroke-width="3" stroke-linecap="round" stroke-linejoin="round"/>
        <path d="M50.8771 63.0969L42.3436 71.7096C42.0391 72.0216 41.6496 72.2352 41.2246 72.3233C40.7996 72.4114 40.3582 72.3699 39.9566 72.2042C39.555 72.0386 39.2112 71.7561 38.9691 71.3928C38.7269 71.0294 38.5972 70.6016 38.5964 70.1637V52.193" stroke="white" stroke-width="3" stroke-linecap="round" stroke-linejoin="round"/>
    </symbol>
    <symbol id="twitter" viewBox="0 0 100 100">
        <rect x="1.5" y="1.5" width="97" height="97" rx="48.5" stroke="white" stroke-width="3"/>
        <mask id="mask0_112_6454" style="mask-type:luminance" maskUnits="userSpaceOnUse" x="24" y="24" width="52" height="52">
        <path d="M75.5 24.5V75.5H24.5V24.5H75.5Z" fill="white" stroke="white"/>
        </mask>
        <g mask="url(#mask0_112_6454)">
        <path d="M40.0186 24.75L40.0928 24.8564L52.8184 42.9688L68.7715 24.835L68.8467 24.75H71.9189L71.5596 25.1641L54.3125 45.0205L54.96 46.0166L75.2041 74.8311L75.4814 75.2246H59.9834L59.9082 75.1201L45.458 54.9717L27.5986 75.1396L27.5234 75.2246H24.4473L24.8125 74.8096L44.2031 52.7666L24.7959 25.1436L24.5186 24.75H40.0186ZM45.9424 51.1191H45.9414L47.9189 53.8838L47.9648 53.9482L61.3145 72.624H70.4824L53.248 47.9238V47.9229L51.2725 45.1592L38.6465 27.4971H29.4785L45.9424 51.1191Z" fill="white" stroke="white" stroke-width="0.5"/>
        </g>
    </symbol>
    <symbol id="instagram" viewBox="0 0 100 100">
        <rect x="1.5" y="1.5" width="97" height="97" rx="48.5" stroke="white" stroke-width="3"/>
        <path d="M64.5166 24.75L65.0703 24.7637C70.7554 25.0504 75.2498 29.725 75.25 35.4834V64.5166C75.2497 70.4607 70.4607 75.2497 64.5166 75.25H35.4834C29.5393 75.2497 24.7503 70.4607 24.75 64.5166V35.4834L24.7637 34.9297C25.0504 29.2446 29.725 24.7502 35.4834 24.75H64.5166ZM35.4834 26.8633C30.7025 26.8635 26.8635 30.7025 26.8633 35.4834V64.5166C26.8635 69.2975 30.7025 73.1365 35.4834 73.1367H64.5166C69.2975 73.1365 73.1365 69.2975 73.1367 64.5166V35.4834C73.1365 30.7025 69.2975 26.8635 64.5166 26.8633H35.4834Z" fill="white" stroke="white" stroke-width="0.5"/>
        <path d="M50 36.4688C57.4428 36.4688 63.5312 42.5572 63.5312 50C63.5312 57.4428 57.4428 63.5312 50 63.5312C42.5572 63.5312 36.4688 57.4428 36.4688 50C36.4688 42.5572 42.5572 36.4688 50 36.4688ZM50 38.6289C43.7465 38.6289 38.6289 43.7465 38.6289 50C38.6289 56.2535 43.7465 61.3711 50 61.3711C56.2535 61.3711 61.3711 56.2535 61.3711 50C61.3711 43.7465 56.2535 38.6289 50 38.6289Z" fill="white" stroke="white" stroke-width="0.5"/>
        <path d="M64.4531 32.5625C66.1407 32.5625 67.4375 33.8593 67.4375 35.5469C67.4375 37.2344 66.1407 38.5312 64.4531 38.5312C62.7656 38.5312 61.4688 37.2344 61.4688 35.5469C61.4688 33.8593 62.7656 32.5625 64.4531 32.5625ZM64.4531 34.8857C64.2365 34.8857 64.0751 34.9562 63.9688 35.0625C63.8624 35.1688 63.792 35.3302 63.792 35.5469C63.792 35.7635 63.8624 35.9249 63.9688 36.0312C64.0751 36.1376 64.2365 36.208 64.4531 36.208C64.6698 36.208 64.8312 36.1376 64.9375 36.0312C65.0438 35.9249 65.1143 35.7635 65.1143 35.5469C65.1143 35.3302 65.0438 35.1688 64.9375 35.0625C64.8312 34.9562 64.6698 34.8857 64.4531 34.8857Z" fill="white" stroke="white" stroke-width="0.5"/>
    </symbol>
		<symbol id="form" viewBox="0 0 100 100">
			<rect x="1.5" y="1.5" width="97" height="97" rx="48.5" stroke="white" stroke-width="3"/>
			<path d="M50 27.2352C63.5404 27.2352 74 36.225 74 46.7352C74 51.8344 71.5801 56.5291 67.5166 60.0555L67 60.5038V61.1884C67 62.7137 66.9996 65.8344 66.9375 68.6337C66.9077 69.9764 66.863 71.2261 66.7998 72.1835C65.8619 71.6903 64.6344 70.9793 63.3428 70.1932C60.655 68.5575 57.8514 66.7032 56.9316 65.9745L56.3877 65.5438L55.708 65.6796C53.8802 66.0426 51.9687 66.2352 50 66.2352C36.4596 66.2352 26 57.2455 26 46.7352C26 36.225 36.4596 27.2352 50 27.2352Z" stroke="white" stroke-width="3"/>
			<circle cx="38.5" cy="46.5" r="2.5" fill="white"/>
			<circle cx="48.5" cy="46.5" r="2.5" fill="white"/>
			<circle cx="58.5" cy="46.5" r="2.5" fill="white"/>
		</symbol>
    <symbol id="facebook" viewBox="0 0 100 100">
        <rect x="1.5" y="1.5" width="97" height="97" rx="48.5" stroke="white" stroke-width="3"/>
        <path d="M62.75 24.75V33.583H58.1377C56.4091 33.583 55.5087 33.8691 55.0264 34.3555C54.5464 34.8396 54.417 35.5856 54.417 36.7061V41.417H62.7812L62.748 41.6963L61.7588 50.0293L61.7324 50.25H54.417V75.25H43.1094V50.25H37.25V41.417H43.1094V36.1064C43.1094 32.5691 43.8501 29.7141 45.7666 27.7471C47.684 25.7791 50.7295 24.75 55.2217 24.75H62.75ZM55.2217 27.333C51.5267 27.333 49.0276 28.0494 47.6436 29.5322L47.6416 29.5342C46.3895 30.8482 45.6924 32.9473 45.6924 36.1064V44H39.833V47.667H45.6924V72.667H51.833V47.667H59.4395L59.875 44H51.833V36.6924C51.833 35.3746 52.0026 33.8495 53.1211 32.6064L53.1221 32.6055L53.249 32.4717C54.5863 31.1265 56.6311 31 58.1377 31H60.167V27.333H55.2217Z" fill="white" stroke="white" stroke-width="0.5"/>
    </symbol>
</svg>